@startuml

' ======= Style / Layout Tweaks =======

hide empty members

skinparam {
  Style StrictUML

  ' use characters instead of icons for showing visibility
  ClassAttributeIconSize 0

  ' make the stereotypes less ugly
  ClassStereotypeFont {
    Size 10
    Style plain
  }

  ' make boxes slightly less pointy
  RoundCorner 5

  ' make everything slightly less cramped
  Padding 2

  ' vertical spacing (make room for labels)
  RankSep 100

  ' horizontal spacing (make room for labels)
  NodeSep 120
}

' ======= Classes =======

class "MainMenu" as menu <<form>> {
 -btnAddOwner : JButton
 -btnAddPet : JButton
 -btnExit : JButton
}
class "AddPetForm" as addpet <<form>> {
  - txtOwnerId : JTextField
  - txtName : JTextField
  - cmbSex : JComboBox
  - cmbSpecies : JComboBox
  - cmbBreed : JComboBox
  - btnFindOwner : JButton
  - btnSavePet : JButton
  - btnCancel : JButton
--
  + displayForm() : void
  + populateSpecies(species : Collection<String>) : void
}
class "PetDataStore" as petdata <<data store>> {
--
  + getSpecies() : Collection<String>
  + findOwner(id : String) : Owner
  + savePet(owner: Owner, pet: Pet) : void
}
class "Owner" as owner <<domain>>
class "Pet" as pet <<domain>>

' ======= Relationships =======

menu -> "-petForm \r1 " addpet
addpet --> "-owner \r1 " owner
addpet --> "-pet     \r1     " pet
addpet --> "-dataStore \r1 " petdata

@enduml